<?xml version="1.0" encoding="UTF-8"?>
<svg version="1.1" xmlns="http://www.w3.org/2000/svg" width="200" height="50">
<path d="M0 0 C5.45637711 0.66400356 11.27504503 1.41137508 16.15234375 4.08203125 C17.83604342 6.65986957 18.1577433 7.83365216 18.08984375 10.95703125 C18.16519822 14.72475482 19.21762677 16.88230701 21.15234375 20.08203125 C21.81234375 20.41203125 22.47234375 20.74203125 23.15234375 21.08203125 C23.45527344 20.53933594 23.75820313 19.99664063 24.0703125 19.4375 C24.48925781 18.72207031 24.90820312 18.00664062 25.33984375 17.26953125 C25.74589844 16.56183594 26.15195312 15.85414062 26.5703125 15.125 C28.5410614 12.58005759 30.25466758 11.49106539 33.15234375 10.08203125 C36.01318359 10.01000977 36.01318359 10.01000977 39.23828125 10.3984375 C45.08863776 10.96117735 50.81482966 11.16522443 56.69140625 11.109375 C57.51340515 11.10362457 58.33540405 11.09787415 59.18231201 11.09194946 C62.58309098 11.06531183 65.98367414 11.02971412 69.38427734 10.98608398 C71.90332733 10.95595408 74.42223426 10.93816119 76.94140625 10.921875 C78.09136581 10.90168556 78.09136581 10.90168556 79.26455688 10.88108826 C83.05490355 10.86318434 85.94063097 10.94352627 89.15234375 13.08203125 C89.70921875 12.56640625 90.26609375 12.05078125 90.83984375 11.51953125 C93.83560697 9.65730006 94.79296855 10.32909439 98.15234375 11.08203125 C99.79281729 11.16411429 101.43609331 11.19993757 103.07861328 11.19555664 C104.50501633 11.19544334 104.50501633 11.19544334 105.9602356 11.19532776 C106.97495941 11.19016647 107.98968323 11.18500519 109.03515625 11.1796875 C110.61198685 11.17756508 110.61198685 11.17756508 112.22067261 11.17539978 C115.57292554 11.16981337 118.92511111 11.15727098 122.27734375 11.14453125 C124.54166569 11.13951381 126.80598869 11.13495133 129.0703125 11.13085938 C134.04788105 11.12103343 139.02541502 11.10682753 144.00296021 11.08876038 C145.71941444 11.08338663 147.4358811 11.08203125 149.15234375 11.08203125 C150.56288838 11.01705945 151.97303963 10.94326836 153.3828125 10.86328125 C154.18525391 10.81816406 154.98769531 10.77304688 155.81445312 10.7265625 C157.06452148 10.65501953 157.06452148 10.65501953 158.33984375 10.58203125 C159.18482422 10.53433594 160.02980469 10.48664062 160.90039062 10.4375 C162.98441739 10.31975837 165.06838628 10.20099314 167.15234375 10.08203125 C167.44753906 9.29570312 167.74273437 8.509375 168.046875 7.69921875 C169.34893042 4.61661404 170.143879 3.5456087 173.15234375 2.08203125 C179.47961648 2.40930398 179.47961648 2.40930398 182.15234375 5.08203125 C182.70412673 8.79349785 182.70343114 12.3706264 182.15234375 16.08203125 C179.55239839 18.68197661 178.15840513 19.05807741 174.52734375 19.14453125 C173.74359375 19.12390625 172.95984375 19.10328125 172.15234375 19.08203125 C169.38114591 20.78785705 169.38114591 20.78785705 168.15234375 22.08203125 C168.68859375 22.78328125 169.22484375 23.48453125 169.77734375 24.20703125 C171.15234375 27.08203125 171.15234375 27.08203125 170.52734375 30.20703125 C169.26951502 32.83703679 168.44442991 34.34004576 166.15234375 36.08203125 C162.61736513 37.26035746 159.39341304 37.26600434 155.71484375 37.26953125 C154.39613281 37.28371094 153.07742187 37.29789063 151.71875 37.3125 C148.49725705 37.10432028 146.81313376 36.80371891 144.15234375 35.08203125 C143.16234375 35.74203125 142.17234375 36.40203125 141.15234375 37.08203125 C139.11523437 37.32495117 139.11523437 37.32495117 136.80859375 37.3125 C135.55755859 37.30959961 135.55755859 37.30959961 134.28125 37.30664062 C132.97994141 37.28827148 132.97994141 37.28827148 131.65234375 37.26953125 C130.35103516 37.26856445 130.35103516 37.26856445 129.0234375 37.26757812 C122.57442223 37.22272408 122.57442223 37.22272408 119.15234375 36.08203125 C118.18296875 36.28828125 117.21359375 36.49453125 116.21484375 36.70703125 C113.15234375 37.08203125 113.15234375 37.08203125 110.77734375 35.64453125 C110.24109375 35.12890625 109.70484375 34.61328125 109.15234375 34.08203125 C109.15234375 34.74203125 109.15234375 35.40203125 109.15234375 36.08203125 C104.63303045 37.33739606 104.63303045 37.33739606 102.15234375 36.01953125 C101.49234375 35.71015625 100.83234375 35.40078125 100.15234375 35.08203125 C98.47345354 35.71728701 96.808176 36.38889217 95.15234375 37.08203125 C92.82026355 37.1584929 90.48388497 37.17346424 88.15234375 37.08203125 C87.16234375 35.10203125 87.16234375 35.10203125 86.15234375 33.08203125 C85.59546875 33.79359375 85.59546875 33.79359375 85.02734375 34.51953125 C82.4685631 36.65184846 80.43736101 36.81386658 77.15234375 37.08203125 C75.81070296 36.78388885 74.47383202 36.45959933 73.15234375 36.08203125 C72.16234375 36.57703125 72.16234375 36.57703125 71.15234375 37.08203125 C69.53068623 37.2035143 67.90350048 37.25746777 66.27734375 37.26953125 C65.41367188 37.28371094 64.55 37.29789063 63.66015625 37.3125 C61.02821495 37.07062377 59.41253831 36.41186666 57.15234375 35.08203125 C57.15234375 34.42203125 57.15234375 33.76203125 57.15234375 33.08203125 C56.49234375 33.08203125 55.83234375 33.08203125 55.15234375 33.08203125 C54.82234375 34.07203125 54.49234375 35.06203125 54.15234375 36.08203125 C51.33498203 36.86463173 49.69265137 37.27714234 46.90234375 36.26953125 C45.15234375 35.08203125 45.15234375 35.08203125 44.15234375 33.08203125 C42.97671875 34.07203125 42.97671875 34.07203125 41.77734375 35.08203125 C37.52547652 37.90987644 33.08552362 37.9220719 28.15234375 37.08203125 C25.15234375 35.20703125 25.15234375 35.20703125 23.15234375 33.08203125 C22.49234375 32.42203125 21.83234375 31.76203125 21.15234375 31.08203125 C17.55555309 31.40529678 17.55555309 31.40529678 14.15234375 32.08203125 C12.68407778 35.50798518 11.89848232 38.35133842 11.15234375 42.08203125 C5.21234375 42.08203125 -0.72765625 42.08203125 -6.84765625 42.08203125 C-8.84765625 34.08203125 -8.84765625 34.08203125 -8.84765625 30.08203125 C-9.96140625 30.42234375 -9.96140625 30.42234375 -11.09765625 30.76953125 C-13.84765625 31.08203125 -13.84765625 31.08203125 -16.16015625 30.08203125 C-17.84765625 28.08203125 -17.84765625 28.08203125 -18.41015625 24.83203125 C-17.71361139 20.18839888 -16.15930637 17.38463315 -12.84765625 14.08203125 C-11.20402491 13.36043701 -9.53715239 12.68851704 -7.84765625 12.08203125 C-5.24880009 9.48317509 -3.89574726 8.11598797 -3.72265625 4.39453125 C-3.78453125 3.24984375 -3.78453125 3.24984375 -3.84765625 2.08203125 C-1.84765625 0.08203125 -1.84765625 0.08203125 0 0 Z " fill="#F2F6F9" transform="translate(17.84765625,3.91796875)"/>
<path d="M0 0 C1.59134766 -0.04253906 1.59134766 -0.04253906 3.21484375 -0.0859375 C6.0625 0.375 6.0625 0.375 7.94140625 2.2109375 C9.0625 4.375 9.0625 4.375 9.0625 7.375 C10.3825 7.045 11.7025 6.715 13.0625 6.375 C13.0625 7.365 13.0625 8.355 13.0625 9.375 C11.7425 9.045 10.4225 8.715 9.0625 8.375 C9.0625 10.025 9.0625 11.675 9.0625 13.375 C12.5275 12.88 12.5275 12.88 16.0625 12.375 C16.5575 13.365 16.5575 13.365 17.0625 14.375 C15.7425 14.705 14.4225 15.035 13.0625 15.375 C14.0525 16.035 15.0425 16.695 16.0625 17.375 C13.03830475 16.78696203 10.04491547 16.14821882 7.0625 15.375 C7.0625 18.015 7.0625 20.655 7.0625 23.375 C6.0725 23.705 5.0825 24.035 4.0625 24.375 C3.7325 25.365 3.4025 26.355 3.0625 27.375 C3.7225 27.705 4.3825 28.035 5.0625 28.375 C3.7425 28.375 2.4225 28.375 1.0625 28.375 C1.0625 27.055 1.0625 25.735 1.0625 24.375 C0.0725 24.375 -0.9175 24.375 -1.9375 24.375 C-1.9375 25.695 -1.9375 27.015 -1.9375 28.375 C-3.5875 28.375 -5.2375 28.375 -6.9375 28.375 C-6.2775 28.045 -5.6175 27.715 -4.9375 27.375 C-4.9375 26.055 -4.9375 24.735 -4.9375 23.375 C-5.9275 23.375 -6.9175 23.375 -7.9375 23.375 C-7.9375 20.735 -7.9375 18.095 -7.9375 15.375 C-11.2375 15.705 -14.5375 16.035 -17.9375 16.375 C-18.2675 15.055 -18.5975 13.735 -18.9375 12.375 C-17.9475 12.87 -17.9475 12.87 -16.9375 13.375 C-16.9375 14.035 -16.9375 14.695 -16.9375 15.375 C-16.2775 15.045 -15.6175 14.715 -14.9375 14.375 C-14.9375 13.385 -14.9375 12.395 -14.9375 11.375 C-14.2775 11.375 -13.6175 11.375 -12.9375 11.375 C-12.9375 12.035 -12.9375 12.695 -12.9375 13.375 C-11.6175 13.375 -10.2975 13.375 -8.9375 13.375 C-8.9375 11.725 -8.9375 10.075 -8.9375 8.375 C-10.5875 8.705 -12.2375 9.035 -13.9375 9.375 C-13.9375 8.385 -13.9375 7.395 -13.9375 6.375 C-12.2875 6.705 -10.6375 7.035 -8.9375 7.375 C-8.81375 6.59125 -8.69 5.8075 -8.5625 5 C-7.34120487 -0.12943956 -4.74708301 0.0575404 0 0 Z " fill="#71BEE3" transform="translate(20.9375,14.625)"/>
<path d="M0 0 C-0.33 1.32 -0.66 2.64 -1 4 C-0.67 4 -0.34 4 0 4 C0.598125 3.34 1.19625 2.68 1.8125 2 C6.65479982 -1.03830577 11.42663138 -0.32000203 17 0 C16.67 0.99 16.34 1.98 16 3 C12.7 3 9.4 3 6 3 C6.49371094 3.51949219 6.98742187 4.03898437 7.49609375 4.57421875 C8.13675781 5.27160156 8.77742188 5.96898437 9.4375 6.6875 C10.07558594 7.37199219 10.71367187 8.05648438 11.37109375 8.76171875 C13.20225848 11.27792352 13.80491277 12.90361546 14 16 C13.34 16.99 12.68 17.98 12 19 C9.04935852 19.2208564 6.31631769 19.28060989 3.375 19.1875 C2.17230469 19.16719727 2.17230469 19.16719727 0.9453125 19.14648438 C-1.03674378 19.11109051 -3.01845551 19.05728234 -5 19 C-4.67 16.36 -4.34 13.72 -4 11 C-5.65 11 -7.3 11 -9 11 C-8.72482232 6.32197941 -6.66806114 4.25361247 -3.47265625 1.13671875 C-2 0 -2 0 0 0 Z " fill="#E6F0F7" transform="translate(171,18)"/>
<path d="M0 0 C2.42578125 0.40625 2.42578125 0.40625 4.42578125 2.40625 C4.13902091 8.04587011 3.02927327 12.39953457 0.42578125 17.40625 C-2.82504548 19.57346782 -3.86654028 19.67846018 -7.63671875 19.65625 C-8.51457031 19.66140625 -9.39242187 19.6665625 -10.296875 19.671875 C-12.57421875 19.40625 -12.57421875 19.40625 -14.57421875 17.40625 C-14.89293206 12.40490269 -14.51476858 6.98814739 -11.69921875 2.71875 C-7.65522204 -0.27380756 -4.91309503 -0.15955924 0 0 Z " fill="#1278BB" transform="translate(58.57421875,17.59375)"/>
<path d="M0 0 C0.87785156 -0.00515625 1.75570312 -0.0103125 2.66015625 -0.015625 C4.9375 0.25 4.9375 0.25 6.9375 2.25 C7.3333338 7.29688099 6.75534478 11.52360357 4.9375 16.25 C1.96387909 19.09806802 -0.11617962 19.64149577 -4.1875 19.5625 C-5.05632812 19.55863281 -5.92515625 19.55476563 -6.8203125 19.55078125 C-9.0625 19.25 -9.0625 19.25 -11.0625 17.25 C-11.56536703 11.31616907 -10.89164058 7.48914921 -8.0625 2.25 C-4.81167327 0.08278218 -3.77017847 -0.02221018 0 0 Z " fill="#197CBC" transform="translate(88.0625,17.75)"/>
<path d="M0 0 C5.61 0 11.22 0 17 0 C16.19642857 14.33035714 16.19642857 14.33035714 14 19 C13.01 19 12.02 19 11 19 C10.34 17.68 9.68 16.36 9 15 C8.67 16.32 8.34 17.64 8 19 C4.04 19 0.08 19 -4 19 C-4 18.01 -4 17.02 -4 16 C-2.35 16 -0.7 16 1 16 C1.13277344 15.22914062 1.26554688 14.45828125 1.40234375 13.6640625 C1.57894531 12.66117188 1.75554687 11.65828125 1.9375 10.625 C2.11152344 9.62726562 2.28554687 8.62953125 2.46484375 7.6015625 C3 5 3 5 4 3 C2.35 3.66 0.7 4.32 -1 5 C-0.67 3.35 -0.34 1.7 0 0 Z " fill="#EBF3F8" transform="translate(145,18)"/>
<path d="M0 0 C0.78375 0.04125 1.5675 0.0825 2.375 0.125 C1.715 0.785 1.055 1.445 0.375 2.125 C1.06207031 2.39054688 1.74914062 2.65609375 2.45703125 2.9296875 C3.35808594 3.28289063 4.25914063 3.63609375 5.1875 4 C6.52748047 4.52207031 6.52748047 4.52207031 7.89453125 5.0546875 C10.375 6.125 10.375 6.125 13.375 8.125 C12.055 8.125 10.735 8.125 9.375 8.125 C9.375 8.785 9.375 9.445 9.375 10.125 C6.06129 12.33414 5.0303979 12.34981553 1.1875 12.25 C0.28644531 12.23195313 -0.61460938 12.21390625 -1.54296875 12.1953125 C-2.23003906 12.17210937 -2.91710938 12.14890625 -3.625 12.125 C-4.615 14.105 -5.605 16.085 -6.625 18.125 C-8.275 17.795 -9.925 17.465 -11.625 17.125 C-11.625 18.115 -11.625 19.105 -11.625 20.125 C-9.975 19.795 -8.325 19.465 -6.625 19.125 C-6.625 20.775 -6.625 22.425 -6.625 24.125 C-7.945 24.125 -9.265 24.125 -10.625 24.125 C-10.955 24.455 -11.285 24.785 -11.625 25.125 C-12.615 25.455 -13.605 25.785 -14.625 26.125 C-14.955 25.795 -15.285 25.465 -15.625 25.125 C-15.625 25.785 -15.625 26.445 -15.625 27.125 C-16.615 27.455 -17.605 27.785 -18.625 28.125 C-19.18302556 22.65634948 -18.35370652 19.75376876 -15.0546875 15.55078125 C-13.15009609 13.65139364 -11.13397063 13.02565612 -8.625 12.125 C-6.02614384 9.52614384 -4.67309101 8.15895672 -4.5 4.4375 C-4.561875 3.2928125 -4.561875 3.2928125 -4.625 2.125 C-2.625 0.125 -2.625 0.125 0 0 Z " fill="#E9F0F3" transform="translate(18.625,3.875)"/>
<path d="M0 0 C1.59134766 -0.04253906 1.59134766 -0.04253906 3.21484375 -0.0859375 C6.0625 0.375 6.0625 0.375 7.94140625 2.2109375 C9.0625 4.375 9.0625 4.375 9.0625 7.375 C10.3825 7.045 11.7025 6.715 13.0625 6.375 C13.0625 7.365 13.0625 8.355 13.0625 9.375 C11.7425 9.045 10.4225 8.715 9.0625 8.375 C9.0625 9.695 9.0625 11.015 9.0625 12.375 C3.1225 12.375 -2.8175 12.375 -8.9375 12.375 C-8.9375 11.055 -8.9375 9.735 -8.9375 8.375 C-10.5875 8.705 -12.2375 9.035 -13.9375 9.375 C-13.9375 8.385 -13.9375 7.395 -13.9375 6.375 C-11.4625 6.87 -11.4625 6.87 -8.9375 7.375 C-8.751875 6.199375 -8.751875 6.199375 -8.5625 5 C-7.34120487 -0.12943956 -4.74708301 0.0575404 0 0 Z " fill="#1888C5" transform="translate(20.9375,14.625)"/>
<path d="M0 0 C0.99 0.33 1.98 0.66 3 1 C4.1875 4.0625 4.1875 4.0625 5 7 C5.66 7 6.32 7 7 7 C7.268125 6.401875 7.53625 5.80375 7.8125 5.1875 C8.99917406 3.00152146 10.09599113 1.58667406 12 0 C12.66 0 13.32 0 14 0 C13.37968409 6.57534861 11.85102717 12.66692592 10 19 C9.34 19 8.68 19 8 19 C8.33 15.37 8.66 11.74 9 8 C8.01 8.99 7.02 9.98 6 11 C5.01 10.67 4.02 10.34 3 10 C2.67 9.34 2.34 8.68 2 8 C1.34 11.3 0.68 14.6 0 18 C-1.32 18.33 -2.64 18.66 -4 19 C-3.42543058 14.69072935 -2.74822782 10.40776673 -2 6.125 C-1.835 5.17882812 -1.67 4.23265625 -1.5 3.2578125 C-1 1 -1 1 0 0 Z " fill="#2180BF" transform="translate(99,18)"/>
<path d="M0 0 C0.80308594 0.01417969 1.60617188 0.02835938 2.43359375 0.04296875 C3.64208984 0.05263672 3.64208984 0.05263672 4.875 0.0625 C6.87109375 0.23046875 6.87109375 0.23046875 7.87109375 1.23046875 C8.42624104 7.61466257 6.71733013 13.15327401 4.87109375 19.23046875 C3.88109375 19.23046875 2.89109375 19.23046875 1.87109375 19.23046875 C2.74609375 13.48046875 2.74609375 13.48046875 3.87109375 11.23046875 C1.89109375 11.23046875 -0.08890625 11.23046875 -2.12890625 11.23046875 C-1.79890625 10.24046875 -1.46890625 9.25046875 -1.12890625 8.23046875 C0.85109375 8.23046875 2.83109375 8.23046875 4.87109375 8.23046875 C4.87109375 6.58046875 4.87109375 4.93046875 4.87109375 3.23046875 C2.56109375 3.89046875 0.25109375 4.55046875 -2.12890625 5.23046875 C-2.78890625 9.52046875 -3.44890625 13.81046875 -4.12890625 18.23046875 C-5.44890625 18.56046875 -6.76890625 18.89046875 -8.12890625 19.23046875 C-6.88802899 0.74567653 -6.88802899 0.74567653 0 0 Z " fill="#1A7CBD" transform="translate(120.12890625,17.76953125)"/>
<path d="M0 0 C1.09054688 0.02320312 2.18109375 0.04640625 3.3046875 0.0703125 C4.40039062 0.08835937 5.49609375 0.10640625 6.625 0.125 C7.46804687 0.14820312 8.31109375 0.17140625 9.1796875 0.1953125 C8.8496875 1.1853125 8.5196875 2.1753125 8.1796875 3.1953125 C4.8796875 3.1953125 1.5796875 3.1953125 -1.8203125 3.1953125 C-1.32660156 3.71480469 -0.83289063 4.23429687 -0.32421875 4.76953125 C0.31644531 5.46691406 0.95710937 6.16429687 1.6171875 6.8828125 C2.57431641 7.90955078 2.57431641 7.90955078 3.55078125 8.95703125 C5.38194598 11.47323602 5.98460027 13.09892796 6.1796875 16.1953125 C5.5196875 17.1853125 4.8596875 18.1753125 4.1796875 19.1953125 C1.359375 19.48828125 1.359375 19.48828125 -1.9453125 19.3828125 C-3.04101562 19.35574219 -4.13671875 19.32867187 -5.265625 19.30078125 C-6.53019531 19.24857422 -6.53019531 19.24857422 -7.8203125 19.1953125 C-7.8203125 17.8753125 -7.8203125 16.5553125 -7.8203125 15.1953125 C-3.95044292 15.12089193 -0.546721 15.14829064 3.1796875 16.1953125 C2.03428525 14.88243629 0.88835317 13.57002229 -0.2578125 12.2578125 C-0.89589844 11.52691406 -1.53398437 10.79601562 -2.19140625 10.04296875 C-3.04572709 9.07391897 -3.90682425 8.10880075 -4.8203125 7.1953125 C-5.0078125 4.7578125 -5.0078125 4.7578125 -4.8203125 2.1953125 C-2.8203125 0.1953125 -2.8203125 0.1953125 0 0 Z " fill="#1B7DBD" transform="translate(178.8203125,17.8046875)"/>
<path d="M0 0 C1.21816406 0.03480469 1.21816406 0.03480469 2.4609375 0.0703125 C3.68683594 0.09738281 3.68683594 0.09738281 4.9375 0.125 C5.87722656 0.15980469 5.87722656 0.15980469 6.8359375 0.1953125 C8.09820166 4.48701064 7.5655254 7.09892011 5.8359375 11.1953125 C3.8359375 13.1953125 3.8359375 13.1953125 1.890625 13.390625 C-0.12760417 13.32552083 -2.14583333 13.26041667 -4.1640625 13.1953125 C-4.21798243 11.40397272 -4.25681821 9.61217351 -4.2890625 7.8203125 C-4.31226563 6.82257812 -4.33546875 5.82484375 -4.359375 4.796875 C-4.11079356 1.48577027 -3.40070881 0.30692318 0 0 Z " fill="#F4F8FB" transform="translate(52.1640625,20.8046875)"/>
<path d="M0 0 C1.21816406 0.03480469 1.21816406 0.03480469 2.4609375 0.0703125 C3.68683594 0.09738281 3.68683594 0.09738281 4.9375 0.125 C5.87722656 0.15980469 5.87722656 0.15980469 6.8359375 0.1953125 C7.93689966 3.46150023 7.7582872 5.21085199 6.4609375 8.3828125 C6.18507813 9.07761719 5.90921875 9.77242187 5.625 10.48828125 C4.8359375 12.1953125 4.8359375 12.1953125 3.8359375 13.1953125 C1.16534899 13.33646411 -1.48838488 13.23778357 -4.1640625 13.1953125 C-4.21798243 11.40397272 -4.25681821 9.61217351 -4.2890625 7.8203125 C-4.31226562 6.82257812 -4.33546875 5.82484375 -4.359375 4.796875 C-4.11079356 1.48577027 -3.40070881 0.30692318 0 0 Z " fill="#F5F9FB" transform="translate(85.1640625,20.8046875)"/>
<path d="M0 0 C3.96 0 7.92 0 12 0 C11.67 0.99 11.34 1.98 11 3 C9.35 3 7.7 3 6 3 C6 6.96 6 10.92 6 15 C6.66 14.67 7.32 14.34 8 14 C8 15.65 8 17.3 8 19 C4.04 19 0.08 19 -4 19 C-4 18.01 -4 17.02 -4 16 C-2.35 16 -0.7 16 1 16 C1.13277344 15.22914062 1.26554688 14.45828125 1.40234375 13.6640625 C1.57894531 12.66117188 1.75554687 11.65828125 1.9375 10.625 C2.11152344 9.62726562 2.28554687 8.62953125 2.46484375 7.6015625 C3 5 3 5 4 3 C2.35 3.66 0.7 4.32 -1 5 C-0.67 3.35 -0.34 1.7 0 0 Z " fill="#177BBC" transform="translate(145,18)"/>
<path d="M0 0 C2.64 0 5.28 0 8 0 C8 4.62 8 9.24 8 14 C8.66 14.33 9.32 14.66 10 15 C8.68 15 7.36 15 6 15 C6 13.68 6 12.36 6 11 C5.01 11 4.02 11 3 11 C3 12.32 3 13.64 3 15 C1.35 15 -0.3 15 -2 15 C-1.34 14.67 -0.68 14.34 0 14 C0 9.38 0 4.76 0 0 Z " fill="#119DDB" transform="translate(16,28)"/>
<path d="M0 0 C3.96 0 7.92 0 12 0 C11.67 0.99 11.34 1.98 11 3 C9.35 3 7.7 3 6 3 C5.93941406 3.98742187 5.87882812 4.97484375 5.81640625 5.9921875 C5.73261719 7.27351563 5.64882812 8.55484375 5.5625 9.875 C5.48128906 11.15117187 5.40007812 12.42734375 5.31640625 13.7421875 C5 17 5 17 4 19 C3.01 19 2.02 19 1 19 C0.77422598 13.5814234 1.53329887 9.22512279 3 4 C1.68 4.33 0.36 4.66 -1 5 C-0.67 3.35 -0.34 1.7 0 0 Z " fill="#2B86C2" transform="translate(66,18)"/>
<path d="M0 0 C3.96 0 7.92 0 12 0 C11.67 0.99 11.34 1.98 11 3 C9.35 3 7.7 3 6 3 C5.67 7.95 5.34 12.9 5 18 C3.68 18.33 2.36 18.66 1 19 C1.11512153 17.27014758 1.24255677 15.54111249 1.375 13.8125 C1.44460937 12.84957031 1.51421875 11.88664062 1.5859375 10.89453125 C2.00215853 7.98491062 2.79874096 5.67109226 4 3 C2.35 3.66 0.7 4.32 -1 5 C-0.67 3.35 -0.34 1.7 0 0 Z " fill="#1D7EBE" transform="translate(131,18)"/>
<path d="M0 0 C0.625 2.375 0.625 2.375 1 5 C0.34 5.66 -0.32 6.32 -1 7 C-3.6015625 6.9765625 -3.6015625 6.9765625 -6.625 6.625 C-7.62789062 6.51414062 -8.63078125 6.40328125 -9.6640625 6.2890625 C-10.43492188 6.19367187 -11.20578125 6.09828125 -12 6 C-12.33 4.68 -12.66 3.36 -13 2 C-4.738041 -1.62870159 -4.738041 -1.62870159 0 0 Z " fill="#BFB58E" transform="translate(26,19)"/>
<path d="M0 0 C-0.56371414 3.26954202 -1.49962266 4.82575883 -4 7 C-3.01 7.33 -2.02 7.66 -1 8 C-1.14107747 9.45880109 -1.28802415 10.91703551 -1.4375 12.375 C-1.51871094 13.18710937 -1.59992188 13.99921875 -1.68359375 14.8359375 C-2 17 -2 17 -3 19 C-3.66 19 -4.32 19 -5 19 C-4.67 16.36 -4.34 13.72 -4 11 C-5.65 11 -7.3 11 -9 11 C-8.72482232 6.32197941 -6.66806114 4.25361247 -3.47265625 1.13671875 C-2 0 -2 0 0 0 Z " fill="#0C75BA" transform="translate(171,18)"/>
<path d="M0 0 C2.5 0.25 2.5 0.25 4.5 2.25 C4.75 4.75 4.75 4.75 4.5 7.25 C2.5 9.25 2.5 9.25 0 9.5 C-2.5 9.25 -2.5 9.25 -4.5 7.25 C-4.75 4.75 -4.75 4.75 -4.5 2.25 C-2.5 0.25 -2.5 0.25 0 0 Z " fill="#87A2C8" transform="translate(193.5,9.75)"/>
<path d="M0 0 C0.66 0 1.32 0 2 0 C1.88534579 2.22972273 1.75785234 4.45878753 1.625 6.6875 C1.55539063 7.92886719 1.48578125 9.17023437 1.4140625 10.44921875 C1.03577906 13.69317772 0.38020024 16.06567185 -1 19 C-1.99 19 -2.98 19 -4 19 C-3.59060025 12.23784552 -2.43046191 6.32837252 0 0 Z " fill="#2180BF" transform="translate(160,18)"/>
<path d="M0 0 C1.65322266 0.01740234 1.65322266 0.01740234 3.33984375 0.03515625 C4.99693359 0.04869141 4.99693359 0.04869141 6.6875 0.0625 C7.54214844 0.07410156 8.39679687 0.08570313 9.27734375 0.09765625 C9.93734375 1.41765625 10.59734375 2.73765625 11.27734375 4.09765625 C10.10171875 4.05640625 8.92609375 4.01515625 7.71484375 3.97265625 C3.54493067 3.95784306 0.23355766 4.8316678 -3.72265625 6.09765625 C-4.38265625 6.09765625 -5.04265625 6.09765625 -5.72265625 6.09765625 C-3.42464819 0.1228353 -3.42464819 0.1228353 0 0 Z " fill="#19AFE2" transform="translate(17.72265625,14.90234375)"/>
<path d="M0 0 C0.33 1.65 0.66 3.3 1 5 C0.01 5.495 0.01 5.495 -1 6 C-1.33 5.34 -1.66 4.68 -2 4 C-5.03336186 3.77106703 -7.97465051 3.63524155 -11 4 C-13.12355567 5.82271927 -13.12355567 5.82271927 -14 8 C-14.75 6.25 -14.75 6.25 -15 4 C-11.82172365 -1.72089744 -5.6975314 -0.35363988 0 0 Z " fill="#187BBC" transform="translate(61,18)"/>
<path d="M0 0 C0.33 0 0.66 0 1 0 C1.33 3.3 1.66 6.6 2 10 C4.31 10.33 6.62 10.66 9 11 C9 11.66 9 12.32 9 13 C7.54207116 13.05399736 6.08357288 13.09279177 4.625 13.125 C3.81289062 13.14820313 3.00078125 13.17140625 2.1640625 13.1953125 C0 13 0 13 -2 11 C-2.26991906 8.31160615 -2.08737357 5.70858064 -2 3 C-1.34 3 -0.68 3 0 3 C0 2.01 0 1.02 0 0 Z " fill="#0D75BA" transform="translate(79,24)"/>
<path d="M0 0 C0.66 0 1.32 0 2 0 C2 0.66 2 1.32 2 2 C4.31 2 6.62 2 9 2 C9 4.97 9 7.94 9 11 C8.34 11 7.68 11 7 11 C7 8.69 7 6.38 7 4 C3.7 4.33 0.4 4.66 -3 5 C-3.33 3.68 -3.66 2.36 -4 1 C-3.01 1.495 -3.01 1.495 -2 2 C-2 2.66 -2 3.32 -2 4 C-1.34 3.67 -0.68 3.34 0 3 C0 2.01 0 1.02 0 0 Z " fill="#33AADF" transform="translate(6,26)"/>
<path d="M0 0 C-0.77904328 11.52164009 -0.77904328 11.52164009 -3 17 C-3.66 17 -4.32 17 -5 17 C-4.88490339 15.58249437 -4.75746342 14.16598831 -4.625 12.75 C-4.55539063 11.96109375 -4.48578125 11.1721875 -4.4140625 10.359375 C-3.98492887 7.914123 -3.21399362 6.15163097 -2 4 C-2.66 3.67 -3.32 3.34 -4 3 C-1.125 0 -1.125 0 0 0 Z " fill="#1D7DBE" transform="translate(112,20)"/>
<path d="M0 0 C1.77260631 0.45142775 3.5430368 0.91140523 5.3125 1.375 C6.79169922 1.75785156 6.79169922 1.75785156 8.30078125 2.1484375 C11 3 11 3 14 5 C12.68 5 11.36 5 10 5 C10 5.66 10 6.32 10 7 C7.69 6.34 5.38 5.68 3 5 C3 4.01 3 3.02 3 2 C2.01 1.67 1.02 1.34 0 1 C0 0.67 0 0.34 0 0 Z " fill="#242424" transform="translate(18,7)"/>
<path d="M0 0 C6.625 -0.25 6.625 -0.25 10 2 C10 2.66 10 3.32 10 4 C6.7 4 3.4 4 0 4 C0 2.68 0 1.36 0 0 Z " fill="#0772B8" transform="translate(171,33)"/>
<path d="M0 0 C0.99 0 1.98 0 3 0 C3.125 7.75 3.125 7.75 2 10 C1.01 10 0.02 10 -1 10 C-1.125 3.375 -1.125 3.375 0 0 Z " fill="#167ABC" transform="translate(68,27)"/>
<path d="M0 0 C0.33 0 0.66 0 1 0 C0.50341703 5.66104589 -0.54510684 9.87674471 -3 15 C-3.99 14.34 -4.98 13.68 -6 13 C-5.34 12.34 -4.68 11.68 -4 11 C-3.31060191 8.67328146 -2.64533078 6.33932406 -2 4 C-1.37530495 2.64649406 -0.7283669 1.30065517 0 0 Z " fill="#2984C1" transform="translate(62,20)"/>
<path d="M0 0 C0.33 0 0.66 0 1 0 C1 3.3 1 6.6 1 10 C-0.32 10.33 -1.64 10.66 -3 11 C-2.53199289 6.94393835 -2.12046792 3.53411321 0 0 Z " fill="#1077BB" transform="translate(98,26)"/>
<path d="M0 0 C0.33 0 0.66 0 1 0 C2.18609365 5.6932495 1.66251802 9.42567486 0 15 C-0.99 15 -1.98 15 -3 15 C-2.01 10.05 -1.02 5.1 0 0 Z " fill="#C9E0EE" transform="translate(113,18)"/>
<path d="M0 0 C1.66611905 -0.042721 3.33382885 -0.04063832 5 0 C6 1 6 1 6.125 3.5 C6 6 6 6 5 7 C3.33382885 7.04063832 1.66611905 7.042721 0 7 C0.33 6.01 0.66 5.02 1 4 C1.33 4.33 1.66 4.66 2 5 C2.33 4.34 2.66 3.68 3 3 C2.01 2.67 1.02 2.34 0 2 C0 1.34 0 0.68 0 0 Z " fill="#BDCBE0" transform="translate(192,11)"/>
<path d="M0 0 C2 2 2 2 2.125 5.625 C2.08375 6.73875 2.0425 7.8525 2 9 C0.68 9.33 -0.64 9.66 -2 10 C-1.54177532 6.53058454 -1.10868317 3.32604951 0 0 Z " fill="#1078BB" transform="translate(134,27)"/>
<path d="M0 0 C0 2.97 0 5.94 0 9 C0.66 9.33 1.32 9.66 2 10 C0.68 10 -0.64 10 -2 10 C-2 8.35 -2 6.7 -2 5 C-2.99 5 -3.98 5 -5 5 C-5 4.34 -5 3.68 -5 3 C-1.42307692 0 -1.42307692 0 0 0 Z " fill="#127CBF" transform="translate(24,33)"/>
<path d="M0 0 C-0.33645789 3.14027363 -1.05236086 4.05098295 -3.375 6.3125 C-4.674375 7.1478125 -4.674375 7.1478125 -6 8 C-6.99 7.67 -7.98 7.34 -9 7 C-7.88121617 5.82737096 -6.75476949 4.66204862 -5.625 3.5 C-4.68527344 2.52546875 -4.68527344 2.52546875 -3.7265625 1.53125 C-2 0 -2 0 0 0 Z " fill="#2E87C2" transform="translate(171,18)"/>
<path d="M0 0 C-0.33 0.99 -0.66 1.98 -1 3 C-3.64 3 -6.28 3 -9 3 C-9.33 2.34 -9.66 1.68 -10 1 C-6.21812119 -0.83691257 -4.05431692 -1.15837626 0 0 Z " fill="#94D1E7" transform="translate(26,13)"/>
<path d="M0 0 C0.99 0 1.98 0 3 0 C3 0.66 3 1.32 3 2 C3.99 2.33 4.98 2.66 6 3 C5.01 3 4.02 3 3 3 C3 4.32 3 5.64 3 7 C1.35 7 -0.3 7 -2 7 C-1.34 6.67 -0.68 6.34 0 6 C0 4.02 0 2.04 0 0 Z " fill="#358BC4" transform="translate(16,36)"/>
<path d="M0 0 C1.98 0 3.96 0 6 0 C6.33 0.99 6.66 1.98 7 3 C8.98 3 10.96 3 13 3 C13.33 3.66 13.66 4.32 14 5 C11.03 5 8.06 5 5 5 C5 4.01 5 3.02 5 2 C3.35 2.33 1.7 2.66 0 3 C0 2.01 0 1.02 0 0 Z " fill="#3595C6" transform="translate(7,21)"/>
<path d="M0 0 C0.66 0.33 1.32 0.66 2 1 C1.67 1.99 1.34 2.98 1 4 C0.77820215 5.89212737 0.59385985 7.78884472 0.4375 9.6875 C0.31181641 11.17830078 0.31181641 11.17830078 0.18359375 12.69921875 C0.12300781 13.45847656 0.06242187 14.21773437 0 15 C-0.33 15 -0.66 15 -1 15 C-1.144375 13.9275 -1.28875 12.855 -1.4375 11.75 C-1.85220246 8.21667785 -1.85220246 8.21667785 -2.75 5.8125 C-3 4 -3 4 -1.5625 1.75 C-1.046875 1.1725 -0.53125 0.595 0 0 Z " fill="#4694C9" transform="translate(81,19)"/>
<path d="M0 0 C2.27139251 4.54278502 2.16188936 6.17369035 1 11 C0.01 11.66 -0.98 12.32 -2 13 C-1.34 8.71 -0.68 4.42 0 0 Z " fill="#CBE1EF" transform="translate(95,21)"/>
<path d="M0 0 C1.21236328 0.04060547 1.21236328 0.04060547 2.44921875 0.08203125 C3.06410156 0.11683594 3.67898437 0.15164062 4.3125 0.1875 C4.3125 0.5175 4.3125 0.8475 4.3125 1.1875 C2.70375 1.2803125 2.70375 1.2803125 1.0625 1.375 C-2.82281961 1.84895959 -2.82281961 1.84895959 -5.125 4.75 C-5.640625 5.554375 -6.15625 6.35875 -6.6875 7.1875 C-7.375 5.375 -7.375 5.375 -7.6875 3.1875 C-5.4301831 0.09854004 -3.71830823 -0.16166558 0 0 Z " fill="#0B75BA" transform="translate(53.6875,18.8125)"/>
<path d="M0 0 C1.32 0 2.64 0 4 0 C3.67 1.32 3.34 2.64 3 4 C1.68 4.33 0.36 4.66 -1 5 C-0.67 3.35 -0.34 1.7 0 0 Z " fill="#66B4DC" transform="translate(19,31)"/>
<path d="M0 0 C1.98 0.495 1.98 0.495 4 1 C4 2.32 4 3.64 4 5 C2.35 4.67 0.7 4.34 -1 4 C-0.67 2.68 -0.34 1.36 0 0 Z " fill="#B2A374" transform="translate(14,20)"/>
<path d="M0 0 C-0.33 2.97 -0.66 5.94 -1 9 C-1.66 9 -2.32 9 -3 9 C-2.67 7.35 -2.34 5.7 -2 4 C-2.66 3.67 -3.32 3.34 -4 3 C-1.125 0 -1.125 0 0 0 Z " fill="#0572B9" transform="translate(112,20)"/>
<path d="M0 0 C0.99 0.33 1.98 0.66 3 1 C2.34 3.31 1.68 5.62 1 8 C0.34 8 -0.32 8 -1 8 C-0.67 5.36 -0.34 2.72 0 0 Z " fill="#1D7EBE" transform="translate(167,29)"/>
<path d="M0 0 C3.96 0 7.92 0 12 0 C11.67 0.66 11.34 1.32 11 2 C9.9275 1.979375 8.855 1.95875 7.75 1.9375 C4.85209576 1.9857984 2.71387859 2.13155885 0 3 C0 2.01 0 1.02 0 0 Z " fill="#1177BA" transform="translate(66,18)"/>
<path d="M0 0 C2.64 0 5.28 0 8 0 C7.67 0.66 7.34 1.32 7 2 C4.35139573 2.59355614 1.70802678 2.74209269 -1 3 C-0.67 2.01 -0.34 1.02 0 0 Z " fill="#1B9CD8" transform="translate(13,18)"/>
<path d="M0 0 C0.66 0 1.32 0 2 0 C3.60725635 3.21451269 3.05748185 6.43612536 3 10 C2.67 10 2.34 10 2 10 C1.67 8.35 1.34 6.7 1 5 C0.67 5 0.34 5 0 5 C0 3.35 0 1.7 0 0 Z " fill="#368BC4" transform="translate(45,24)"/>
</svg>
